<svg id="epEW1aYruyS1" xmlns="http://www.w3.org/2000/svg" xmlns:xlink="http://www.w3.org/1999/xlink" viewBox="0 0 64 64" shape-rendering="geometricPrecision" text-rendering="geometricPrecision"><path d="M5.575312,-0.000002C5.575312,-14.910435,0,-26.997728,0,-26.997728s28.8882-1.858397,28.8882,26.997756-28.8882,26.9977-28.8882,26.9977s5.575312-12.087297,5.575312-26.99773Z" transform="matrix(1.22603 0 0 1.1112 12.5822 32)" fill="#d2dbed" stroke-width="0"/><path d="M6.835503,-0.428497C6.835503,-17.864957,0,-32,0,-32s32,0,32,31.571503-32,31.571504-32,31.571504s6.835503-14.135044,6.835503-31.571504Z" transform="matrix(1 0 0 0.950224 16 32.4072)" fill="#d2dbed" stroke="#000"/><path d="M0,31.143007c0,0,6.835503-14.135044,6.835503-31.571504C6.835503,-17.864957,0,-32,0,-32" transform="matrix(1 0 0 0.950224 12.5822 32.4072)" fill="none" stroke="#000"/><path d="M48,32.000001L64,32" fill="none" stroke="#000" stroke-width="2"/><ellipse rx="3.25" ry="3.25" transform="translate(51.250001 32)" fill="#d2dbed" stroke="#000" stroke-width="0.5"/></svg>
